# xmcd
#
# Track frame offsets:
# 150
# 11330
# 26154
# 42688
# 56918
# 74855
# 88137
# 102779
# 117779
# 129211
#
# Disc length: 1949 seconds
#
#
# Revision: 0
# Processed by: cddbd v1.5.1PL2 Copyright (c) Steve Scherf et al.
# Submitted via: FreeRIP 2.943 
#
DISCID=8c079b0a
DTITLE=Ricky Skaggs - Uncle Pen 
DYEAR=2002
DGENRE=Country
TTITLE0=Uncle Pen
TTITLE1=Don't Get Above Your Raising
TTITLE2=Your Old Love Letters
TTITLE3=If That's The Way You Feel
TTITLE4=Don''t Let Your Sweet Love Die
TTITLE5=Lost To A Stranger
TTITLE6=Hold Whatcha Got
TTITLE7=Wheel Hoss
TTITLE8=I'm Ready To Go
TTITLE9=Can't You Hear Me Calling
EXTD=
EXTT0=
EXTT1=
EXTT2=
EXTT3=
EXTT4=
EXTT5=
EXTT6=
EXTT7=
EXTT8=
EXTT9=
PLAYORDER=
